<svg width="44" height="44" viewBox="0 0 44 44" fill="none" xmlns="http://www.w3.org/2000/svg">
<circle cx="22" cy="22" r="22" fill="#F9822C"/>
<path d="M18.264 28.6416L22.415 25.4765L26.5659 28.6416L25.0093 23.5048L29.1602 20.5472H24.0753L22.415 15.151L20.7546 20.5472H15.6697L19.8206 23.5048L18.264 28.6416ZM22.415 32.7925C20.9794 32.7925 19.6304 32.5201 18.3678 31.9753C17.1052 31.4305 16.0069 30.6911 15.073 29.7571C14.139 28.8232 13.3996 27.7249 12.8548 26.4623C12.31 25.1997 12.0376 23.8507 12.0376 22.4151C12.0376 20.9796 12.31 19.6305 12.8548 18.368C13.3996 17.1054 14.139 16.0071 15.073 15.0732C16.0069 14.1392 17.1052 13.3998 18.3678 12.855C19.6304 12.3102 20.9794 12.0378 22.415 12.0378C23.8505 12.0378 25.1995 12.3102 26.4621 12.855C27.7247 13.3998 28.823 14.1392 29.7569 15.0732C30.6909 16.0071 31.4303 17.1054 31.9751 18.368C32.5199 19.6305 32.7923 20.9796 32.7923 22.4151C32.7923 23.8507 32.5199 25.1997 31.9751 26.4623C31.4303 27.7249 30.6909 28.8232 29.7569 29.7571C28.823 30.6911 27.7247 31.4305 26.4621 31.9753C25.1995 32.5201 23.8505 32.7925 22.415 32.7925Z" fill="white"/>
</svg>
